PathFileType	4	(X/Y/Z)	RBDS023\RBDS023runT35.trc
DataRate	CameraRate	NumFrames	NumMarkers	Units	OrigDataRate	OrigDataStartFrame	OrigNumFrames
150.000000	150.000000	4	33	mm	150.000000	1687	4500
Frame#	Time	L.ASIS			L.Heel.Bottom			L.Heel.Lateral			L.Heel.Top			L.Iliac.Crest			L.MT1			L.MT5			L.PSIS			L.Shank.Bottom.Lateral			L.Shank.Bottom.Medial			L.Shank.Top.Lateral			L.Shank.Top.Medial			L.Thigh.Bottom.Lateral			L.Thigh.Bottom.Medial			L.Thigh.Top.Lateral			L.Thigh.Top.Medial			R.ASIS			R.ASY			R.Heel.Bottom			R.Heel.Lateral			R.Heel.Top			R.Iliac.Crest			R.MT1			R.MT5			R.PSIS			R.Shank.Bottom.Lateral			R.Shank.Bottom.Medial			R.Shank.Top.Lateral			R.Shank.Top.Medial			R.Thigh.Bottom.Lateral			R.Thigh.Bottom.Medial			R.Thigh.Top.Lateral			R.Thigh.Top.Medial			
		X1	Y1	Z1	X2	Y2	Z2	X3	Y3	Z3	X4	Y4	Z4	X5	Y5	Z5	X6	Y6	Z6	X7	Y7	Z7	X8	Y8	Z8	X9	Y9	Z9	X10	Y10	Z10	X11	Y11	Z11	X12	Y12	Z12	X13	Y13	Z13	X14	Y14	Z14	X15	Y15	Z15	X16	Y16	Z16	X17	Y17	Z17	X18	Y18	Z18	X19	Y19	Z19	X20	Y20	Z20	X21	Y21	Z21	X22	Y22	Z22	X23	Y23	Z23	X24	Y24	Z24	X25	Y25	Z25	X26	Y26	Z26	X27	Y27	Z27	X28	Y28	Z28	X29	Y29	Z29	X30	Y30	Z30	X31	Y31	Z31	X32	Y32	Z32	X33	Y33	Z33	

1688	11.24666666666667	2370.408888885398	981.6193578748029	880.8177649843482	2296.292310989112	31.25300029657184	975.7405287074332	2322.468978345807	52.67125685975883	936.0863428276884	2310.401404225188	76.72191796093175	980.6869475957699	2288.267628657959	1043.963833716735	834.4076861657276	2526.790263012918	33.36718703008431	1000.423457854554	2483.006874671654	33.36732122311032	885.6313785534041	2192.399905332113	1008.482369871832	945.0321295995143	2400.76371184258	149.3737224075485	910.1505932342671	2357.473432361508	160.2194257346812	934.9415786487056	2406.966233838683	225.6093799670905	882.8519474726154	2365.074256987742	241.3743712283805	911.7434820327969	2415.43447714191	646.9532695423063	818.9789915213483	2361.891033543537	618.8822564975228	855.5723177404025	2357.483508980746	740.1519350088224	808.9667600616239	2305.872936203721	713.8527238829162	844.0087311307226	2381.600033142049	962.5051363912171	1093.159060901864	1838.373922561935	374.2177355784844	1050.89595946535	1842.207049274353	573.7300596640756	1023.909532828561	1852.421071591352	544.4050444931381	1069.713486657174	1883.073661355943	549.310555613926	1023.954656196457	2327.354038113018	1048.003309414902	1142.016383680695	1779.872699874619	356.5755861483128	1007.222492545653	1789.380132082909	394.3801870075573	1115.118706692792	2201.315309313475	1007.136368722313	1054.377102437797	1958.104867122482	478.0396978389169	1089.487308174572	1960.444478357384	523.6224061045448	1057.475180048567	2038.093190365581	485.665224550643	1103.552094535437	2039.266689575462	528.8931527456103	1071.312161216871	2288.626734382708	560.538654431215	1123.519301063899	2238.093846200414	560.2477130966291	1070.014005127058	2267.235820410024	666.9370961357209	1139.407633958129	2219.784294157434	666.7275461934979	1088.908859332736	
1689	11.25333333333333	2367.523698618819	977.3214792557334	880.1231582096261	2273.582753558071	32.07115485574041	975.7897175759093	2299.774900302049	53.59773772946461	936.1649526890959	2287.871602269189	77.45873368599257	980.8697238739417	2284.3888818091	1037.72658126889	835.1869998336562	2503.872634667382	33.33086279714581	1000.727477720739	2459.991910831077	34.23302223454142	885.5361669834415	2189.733697330263	1004.626363680049	946.7128268448172	2381.997338538057	148.8844373812693	910.2544707197079	2338.957973634678	161.7125121040866	934.6129054373258	2391.547817490318	224.6738025159846	882.4270980835064	2350.114555334925	242.3316758156701	910.9842668590528	2409.934837906395	642.53459451268	817.5740819442786	2356.946617570057	615.0605696348371	855.3404057940201	2352.589661555398	736.171737109843	808.066068079227	2301.484495899676	710.4207756024149	844.1890707217569	2379.690163847993	957.6267597199247	1092.91086782228	1855.463491478546	374.6190521323023	1052.080041950059	1857.599681870874	574.1798448034291	1026.656834598629	1868.761883722043	544.5790893688701	1072.168620191571	1898.650600113562	549.928004509383	1025.881309706758	2324.549473347656	1042.27612135954	1143.032301315443	1796.592194601357	356.7543358969494	1009.319601246826	1807.645878424383	393.6837632536275	1117.172124995515	2199.311762817923	1003.090621274211	1055.331608485593	1974.636041165336	477.5707264435105	1090.815895404732	1977.377561584859	523.4087210130656	1059.258429063743	2054.713941452815	484.2832588592896	1104.957922560898	2056.290717121739	527.728286371733	1072.975925835981	2300.719228113636	556.6930113399327	1124.792655892039	2249.50365669019	554.2238999399056	1072.127404695364	2275.266593636596	662.1566170396825	1140.834936833736	2226.978489654275	659.813146322681	1091.297734167468	
1690	11.26	2364.800576597219	973.4751934782374	879.3036772003005	2250.808446769146	32.67987959301879	975.8185682027615	2276.943678645874	54.30751027949542	936.1727329123293	2265.133317266827	78.00587781632079	980.9545663194631	2280.577191254577	1032.109756683859	835.9128991627014	2480.763932923194	33.67118988735219	1000.813976044383	2436.808957005492	35.1485972870555	885.3884317814372	2187.249084922771	1001.419125002	948.1273198794039	2362.458449221877	148.3469290625246	910.1911058768293	2319.761505921166	162.9827528907132	934.1955739621224	2375.061490878517	223.5875237715154	881.9136911885736	2334.155231239198	242.9582634487046	910.1985592869457	2403.49054645627	638.1066344908158	816.3595189182386	2350.827445162337	611.464149800907	855.1130882982881	2347.226833069114	732.4429949959218	807.2963709131914	2296.440298775077	707.466082937673	844.3754151043357	2377.809909861626	953.4314525356906	1092.724893950773	1873.315988137723	373.5728975253638	1053.089007520807	1872.437119990301	573.1553506311717	1029.144542904494	1884.710561518149	543.3908246323301	1074.413797178519	1913.83347418614	549.3750124278757	1027.637470003875	2321.253810873874	1037.418055429684	1143.807404851131	1814.213272911602	355.078673191408	1011.23734265672	1826.514113369868	391.2828897502096	1119.056072750846	2197.368771751199	999.7589807815169	1055.979937780746	1991.223228123035	476.3613201378452	1091.978927793715	1994.1058982391	522.4610135827475	1060.87482568528	2071.325114391357	482.6592557404865	1106.221491259704	2073.060446810651	526.3243753389993	1074.513055590928	2313.203993964561	554.012824386124	1126.163507133616	2261.43949431636	549.2410255929444	1074.335722559134	2283.628370070006	658.3462398330619	1142.327216346237	2234.580279783655	653.7354397711505	1093.782847337177	
1691	11.26666666666667	2362.272003352709	970.1409574294137	878.3977508463728	2227.915691975031	33.11227286885163	975.8411072761135	2253.956089530479	54.81607718212124	936.1325441900701	2242.197628266294	78.39428233771474	980.9694556126573	2276.928007840736	1027.298983729481	836.5434032817539	2457.495867067375	34.13145359004579	1000.723798555382	2413.467966290377	35.93340685430945	885.2105137699629	2184.983705893537	998.9069479085422	949.2567600973005	2342.225539479965	147.7327329172775	910.0000255332624	2299.943887896998	163.9921844037138	933.7327874992657	2357.579395417439	222.3555907958129	881.3583853137848	2317.247762959755	243.2560788448078	909.4303217501067	2396.21010341269	633.7808451646092	815.3196453267456	2343.610611670618	608.1637938172698	854.8108997163212	2341.473872845852	729.0501791977941	806.6572473193654	2290.797600462901	705.0368170091044	844.5187988018225	2376.009679986349	950.0305800295852	1092.605573478957	1891.810346717967	371.0990619402525	1053.937570464788	1886.63921370841	570.6275812782195	1031.312115596649	1900.155483270996	540.8449041443383	1076.397479953982	1928.524167278488	547.6317104610359	1029.182804587638	2317.599978942359	1033.539306100525	1144.32991266506	1832.635639940583	351.5706812991096	1012.961666125927	1845.834528204644	387.2598434915095	1120.753761244357	2195.519154210759	997.15071476072	1056.358335895414	2007.746930758935	474.4327802949905	1092.966531228913	2010.492372132438	520.7990873708616	1062.307385759886	2087.812832112491	480.8322291306754	1107.321419642692	2089.442757815405	524.7262285621578	1075.91003649361	2325.997612986533	552.580116953087	1127.583749844885	2273.845493943935	545.4029695133976	1076.561199626947	2292.270941093682	655.5836342643184	1143.830500388847	2242.581300171545	648.5983309680282	1096.275518349992	
